<?xml version="1.0" encoding="utf-8"?>

<svg xmlns="http://www.w3.org/2000/svg" xmlns:xlink="http://www.w3.org/1999/xlink" version="1.1" viewBox="26.23 102.84 749.0625 187.29120267260578" width="1200" height="300">
  <g stroke-width="2.00" fill="none" stroke-linecap="butt">
    <path stroke="#808080" d="
  M 373.42 166.22
  C 363.10 176.44 361.48 189.92 362.22 203.91
  A 0.72 0.72 0.0 0 0 362.93 204.59
  Q 403.48 204.93 429.64 204.68
  C 431.92 204.65 432.76 204.35 434.02 202.50
  C 444.41 187.23 448.14 168.86 441.21 151.23
  A 1.20 1.18 -32.6 0 1 441.50 149.95
  Q 448.97 142.80 445.35 132.72
  Q 443.36 127.19 438.89 125.24
  Q 431.08 121.86 425.04 127.74
  A 1.21 1.20 28.2 0 1 423.97 128.06
  C 422.14 127.69 421.08 126.62 421.31 124.26
  C 421.73 120.05 419.40 114.98 415.09 113.63
  Q 404.76 110.40 399.53 118.97
  C 398.55 120.58 398.04 122.73 397.58 124.70
  A 1.79 1.75 83.5 0 1 396.67 125.87
  Q 395.16 126.64 393.65 127.41
  Q 387.74 130.40 384.66 135.89
  A 2.41 2.41 0.0 0 1 383.03 137.08
  C 380.82 137.52 378.44 137.35 376.40 138.15
  C 368.81 141.11 368.21 147.99 369.27 155.35
  Q 370.03 160.67 373.50 165.01
  A 0.91 0.91 0.0 0 1 373.42 166.22"/>
    <path stroke="#999999" d="
  M 221.76 255.00
  L 209.96 255.00
  A 0.89 0.89 0.0 0 0 209.08 255.75
  Q 208.86 257.09 207.10 263.13
  Q 206.26 265.99 208.49 267.14
  C 214.37 270.18 222.99 270.36 230.19 269.72
  C 240.71 268.78 249.32 264.47 249.85 253.42
  C 250.44 240.85 240.27 240.13 231.23 237.54
  C 224.06 235.49 227.76 225.61 234.01 225.81
  Q 236.25 225.88 236.90 227.78
  Q 237.79 230.35 237.68 231.54
  Q 237.43 234.30 237.43 234.32
  A 0.69 0.68 87.2 0 0 238.11 234.94
  L 249.58 235.01
  A 0.96 0.96 0.0 0 0 250.53 234.24
  L 252.57 224.54
  A 0.58 0.57 23.1 0 0 252.32 223.93
  C 242.60 217.47 220.78 219.26 214.21 230.20
  C 209.97 237.28 212.30 246.38 220.62 248.92
  Q 228.32 251.27 230.62 252.60
  C 235.57 255.44 233.65 261.13 229.73 263.84
  Q 227.55 265.35 224.72 263.89
  A 2.62 2.61 -9.1 0 1 224.04 263.40
  Q 222.19 261.56 222.53 255.82
  A 0.77 0.77 0.0 0 0 221.76 255.00"/>
    <path stroke="#999999" d="
  M 513.27 250.98
  L 500.70 250.98
  A 1.09 1.09 0.0 0 0 499.62 251.93
  Q 498.84 258.02 494.87 262.65
  Q 492.80 265.07 489.81 263.90
  A 1.68 1.66 83.6 0 1 489.04 263.28
  Q 487.69 261.29 487.65 260.50
  Q 486.86 245.20 493.12 230.87
  Q 494.51 227.69 497.14 226.18
  C 504.62 221.90 502.45 235.13 502.07 238.50
  A 0.64 0.64 0.0 0 0 502.71 239.22
  L 514.69 239.22
  A 1.17 1.17 0.0 0 0 515.83 238.30
  L 518.41 226.02
  A 1.29 1.29 0.0 0 0 517.77 224.63
  C 503.38 216.73 483.26 218.92 474.55 234.09
  C 470.76 240.70 469.57 249.66 471.28 256.97
  Q 473.68 267.18 484.22 269.27
  C 492.20 270.85 503.89 270.24 510.98 265.05
  A 0.69 0.67 -13.4 0 0 511.25 264.63
  L 513.95 251.81
  A 0.69 0.69 0.0 0 0 513.27 250.98"/>
    <path stroke="#999999" d="
  M 259.63 242.69
  Q 259.10 244.87 256.05 259.89
  Q 254.47 267.71 262.20 269.75
  Q 264.60 270.39 274.83 269.64
  A 0.83 0.83 0.0 0 0 275.57 268.99
  L 276.46 264.75
  A 0.67 0.67 0.0 0 0 275.81 263.94
  L 272.54 263.94
  A 0.86 0.86 0.0 0 1 271.70 263.28
  Q 271.15 260.92 271.50 259.48
  Q 273.26 252.33 275.11 242.58
  A 1.06 1.05 -84.3 0 1 276.14 241.73
  L 280.36 241.73
  A 1.30 1.29 6.0 0 0 281.63 240.71
  L 282.20 237.97
  A 1.09 1.09 0.0 0 0 281.14 236.65
  L 277.51 236.65
  A 0.79 0.78 5.7 0 1 276.74 235.71
  L 278.57 227.02
  A 0.63 0.63 0.0 0 0 277.95 226.26
  L 271.75 226.26
  A 1.97 1.94 17.5 0 0 270.16 227.07
  Q 264.77 234.63 256.12 236.29
  A 2.04 2.03 0.4 0 0 254.52 237.86
  L 253.95 240.60
  A 1.00 1.00 0.0 0 0 255.08 241.80
  Q 257.35 241.44 259.06 241.79
  A 0.73 0.73 0.0 0 1 259.63 242.69"/>
    <path stroke="#999999" d="
  M 296.37 268.92
  Q 297.94 262.52 300.27 249.74
  C 300.80 246.84 302.04 244.06 305.26 245.06
  A 1.95 1.94 -86.5 0 1 306.59 246.57
  L 307.65 252.73
  A 0.77 0.77 0.0 0 0 308.41 253.37
  L 315.26 253.37
  A 0.86 0.85 5.8 0 0 316.10 252.69
  L 319.08 238.54
  A 1.75 1.75 0.0 0 0 317.78 236.48
  Q 307.48 233.97 302.07 242.04
  A 0.57 0.57 0.0 0 1 301.03 241.82
  L 300.28 237.45
  A 1.06 1.05 85.1 0 0 299.24 236.57
  L 288.01 236.57
  A 0.60 0.60 0.0 0 0 287.42 237.05
  L 280.81 268.49
  A 0.88 0.88 0.0 0 0 281.67 269.56
  L 295.55 269.56
  A 0.85 0.84 7.0 0 0 296.37 268.92"/>
    <path stroke="#999999" d="
  M 355.08 258.29
  L 344.11 258.29
  A 1.17 1.17 0.0 0 0 343.00 259.10
  Q 341.51 263.65 336.99 265.12
  A 0.85 0.85 0.0 0 1 336.08 264.87
  C 333.85 262.30 334.20 257.81 334.88 254.76
  A 0.87 0.86 -83.2 0 1 335.72 254.09
  L 356.34 254.09
  A 0.79 0.77 -76.1 0 0 357.03 253.66
  Q 359.82 248.24 358.38 242.62
  C 357.09 237.64 351.70 236.45 346.99 236.06
  C 337.34 235.24 326.24 236.93 321.54 246.00
  Q 317.60 253.58 320.17 261.26
  C 324.09 273.00 343.26 270.77 352.37 267.52
  A 3.02 3.00 86.4 0 0 354.31 265.30
  L 355.64 258.98
  A 0.57 0.57 0.0 0 0 355.08 258.29"/>
    <path stroke="#999999" d="
  M 364.36 244.96
  A 0.90 0.90 0.0 0 0 365.24 246.04
  L 374.53 246.06
  A 1.31 1.30 6.5 0 0 375.81 245.05
  Q 376.79 240.77 381.95 241.05
  A 2.82 2.81 1.7 0 1 384.60 243.86
  L 384.60 246.90
  A 2.58 2.57 -88.7 0 1 381.91 249.48
  C 374.77 249.17 360.79 249.87 359.21 259.10
  C 358.27 264.61 361.67 269.44 367.36 269.92
  Q 375.22 270.59 380.84 264.91
  A 0.71 0.71 0.0 0 1 382.04 265.28
  L 382.62 268.66
  A 1.03 1.03 0.0 0 0 383.63 269.52
  L 394.94 269.54
  A 0.51 0.51 0.0 0 0 395.44 269.14
  C 397.39 260.20 399.48 253.65 399.48 246.01
  C 399.48 240.14 395.77 237.27 390.25 236.39
  C 382.49 235.15 372.63 235.30 365.98 239.33
  A 1.28 1.28 0.0 0 0 365.38 240.17
  L 364.36 244.96"/>
    <path stroke="#999999" d="
  M 422.72 241.26
  Q 422.33 239.99 422.12 238.86
  C 421.66 236.36 420.33 236.65 418.40 236.61
  Q 409.20 236.44 409.08 236.42
  A 0.46 0.45 -79.9 0 0 408.57 236.78
  L 401.96 268.55
  A 0.83 0.83 0.0 0 0 402.77 269.55
  L 416.81 269.55
  A 0.66 0.65 -84.0 0 0 417.45 269.03
  L 422.01 247.35
  A 5.19 5.18 -0.2 0 1 425.99 243.35
  L 426.64 243.21
  A 2.29 2.29 0.0 0 1 429.37 245.92
  L 424.58 268.69
  A 0.68 0.68 0.0 0 0 425.24 269.52
  L 438.14 269.52
  A 0.77 0.77 0.0 0 0 438.89 268.91
  L 443.48 247.10
  A 4.82 4.80 2.7 0 1 447.67 243.30
  L 448.29 243.23
  A 2.38 2.38 0.0 0 1 450.88 246.09
  L 446.21 268.31
  A 1.02 1.02 0.0 0 0 447.21 269.54
  L 460.56 269.54
  A 0.70 0.70 0.0 0 0 461.24 268.99
  Q 463.69 257.38 466.07 246.28
  C 466.90 242.46 465.82 238.43 461.76 236.84
  C 455.69 234.47 449.45 237.11 444.61 241.16
  A 0.69 0.69 0.0 0 1 443.48 240.70
  C 443.20 237.81 440.56 236.04 437.70 235.88
  Q 429.31 235.40 423.25 241.40
  A 0.32 0.32 0.0 0 1 422.72 241.26"/>
    <path stroke="#999999" d="
  M 521.06 245.03
  A 0.90 0.90 0.0 0 0 521.94 246.11
  L 531.20 246.11
  A 1.30 1.30 0.0 0 0 532.47 245.10
  Q 533.44 240.83 538.58 241.10
  A 2.81 2.80 1.6 0 1 541.23 243.90
  L 541.23 246.93
  A 2.57 2.56 -88.8 0 1 538.56 249.50
  C 531.44 249.21 517.51 249.93 515.95 259.13
  C 515.03 264.63 518.43 269.43 524.10 269.90
  Q 531.93 270.55 537.52 264.88
  A 0.71 0.71 0.0 0 1 538.72 265.25
  L 539.30 268.62
  A 1.03 1.03 0.0 0 0 540.31 269.47
  L 551.58 269.47
  A 0.51 0.51 0.0 0 0 552.08 269.07
  C 554.01 260.16 556.08 253.62 556.06 246.01
  C 556.05 240.16 552.35 237.31 546.84 236.44
  C 539.11 235.22 529.28 235.39 522.66 239.42
  A 1.27 1.27 0.0 0 0 522.07 240.26
  L 521.06 245.03"/>
    <path stroke="#999999" d="
  M 575.48 264.66
  C 581.31 272.30 593.19 271.97 597.79 263.19
  C 601.17 256.73 606.72 236.40 592.94 236.24
  Q 585.08 236.15 579.66 241.35
  A 0.52 0.51 68.5 0 1 578.79 240.97
  Q 578.80 238.92 577.83 237.13
  A 1.10 1.08 75.8 0 0 576.87 236.55
  L 565.72 236.55
  A 0.66 0.65 -84.0 0 0 565.08 237.07
  L 555.69 281.74
  A 0.47 0.47 0.0 0 0 556.15 282.31
  L 570.54 282.31
  A 0.88 0.87 -83.8 0 0 571.39 281.62
  L 574.93 264.78
  A 0.31 0.31 0.0 0 1 575.48 264.66"/>
    <path stroke="#808080" d="
  M 371.58 155.77
  L 372.62 147.80
  A 2.53 2.52 -57.2 0 0 372.26 146.13
  L 371.95 145.62
  A 0.54 0.53 32.9 0 0 370.96 145.83
  C 370.12 153.17 370.43 158.75 375.38 164.61
  A 0.95 0.95 0.0 0 0 376.36 164.92
  C 389.48 161.49 399.28 166.74 409.68 174.40
  C 415.52 178.70 423.04 178.73 429.59 176.36
  C 434.70 174.50 443.31 169.04 442.66 162.64
  Q 442.16 157.73 439.84 152.51
  A 1.31 1.30 67.8 0 0 438.20 151.82
  Q 434.93 153.03 431.25 152.47
  A 0.66 0.65 -86.4 0 1 430.69 151.83
  Q 430.63 144.31 423.81 142.01
  A 2.52 2.50 3.9 0 1 422.15 140.12
  Q 421.04 134.60 423.37 130.53
  A 0.60 0.59 30.2 0 0 423.15 129.72
  Q 417.97 126.79 415.74 126.27
  Q 401.91 123.10 390.66 131.42
  Q 387.72 133.60 386.00 137.16
  A 2.53 2.50 7.8 0 1 384.16 138.54
  L 376.91 139.80
  A 0.91 0.91 0.0 0 0 376.40 140.07
  L 375.71 140.76
  A 0.34 0.33 20.7 0 0 375.97 141.33
  C 383.49 140.92 382.01 149.42 375.59 147.46
  A 0.87 0.87 0.0 0 0 374.52 147.98
  Q 373.10 151.75 373.08 155.30
  A 0.17 0.16 -16.8 0 1 373.00 155.44
  L 372.07 156.07
  A 0.32 0.31 -13.4 0 1 371.58 155.77"/>
    <path stroke="#808080" d="
  M 397.57 143.76
  L 399.65 158.35
  A 3.24 3.24 0.0 0 0 403.31 161.10
  L 404.91 160.88
  A 9.22 8.58 81.9 0 0 412.11 150.54
  L 411.72 147.79
  A 9.22 8.58 81.9 0 0 401.92 139.87
  L 400.32 140.10
  A 3.24 3.24 0.0 0 0 397.57 143.76"/>
    <path stroke="#999999" d="
  M 343.11 250.61
  A 1.86 1.86 0.0 0 0 344.93 249.15
  C 345.47 246.67 346.20 240.73 341.69 241.03
  A 1.71 1.70 -67.9 0 0 340.66 241.47
  Q 337.66 244.15 336.04 249.28
  A 1.02 1.02 0.0 0 0 337.01 250.61
  L 343.11 250.61"/>
    <path stroke="#999999" d="
  M 374.89 262.13
  Q 375.23 262.42 375.58 262.61
  A 1.61 1.60 58.4 0 0 376.44 262.82
  C 382.22 262.51 383.12 257.56 382.79 252.94
  Q 382.78 252.83 382.65 252.72
  Q 382.52 252.62 382.41 252.63
  C 377.81 253.18 373.12 255.00 373.91 260.73
  A 1.61 1.60 20.7 0 0 374.28 261.54
  Q 374.54 261.84 374.89 262.13"/>
    <path stroke="#999999" d="
  M 539.66 253.58
  A 0.55 0.54 4.1 0 0 539.12 252.96
  C 535.20 253.01 531.36 253.93 530.41 258.34
  C 529.84 260.99 531.57 263.48 534.39 262.74
  C 539.20 261.50 539.06 257.53 539.66 253.58"/>
    <path stroke="#999999" d="
  M 586.1047 247.8804
  A 3.46 3.46 0.0 0 0 583.5919 243.6818
  L 583.3591 243.6233
  A 3.46 3.46 0.0 0 0 579.1605 246.1362
  L 576.1153 258.2596
  A 3.46 3.46 0.0 0 0 578.6281 262.4582
  L 578.8609 262.5167
  A 3.46 3.46 0.0 0 0 583.0595 260.0038
  L 586.1047 247.8804"/>
  </g>
  <path fill="#fdfdfd" d="
  M 802.00 0.00
  L 802.00 418.00
  L 0.00 418.00
  L 0.00 0.00
  L 802.00 0.00
  Z
  M 373.42 166.22
  C 363.10 176.44 361.48 189.92 362.22 203.91
  A 0.72 0.72 0.0 0 0 362.93 204.59
  Q 403.48 204.93 429.64 204.68
  C 431.92 204.65 432.76 204.35 434.02 202.50
  C 444.41 187.23 448.14 168.86 441.21 151.23
  A 1.20 1.18 -32.6 0 1 441.50 149.95
  Q 448.97 142.80 445.35 132.72
  Q 443.36 127.19 438.89 125.24
  Q 431.08 121.86 425.04 127.74
  A 1.21 1.20 28.2 0 1 423.97 128.06
  C 422.14 127.69 421.08 126.62 421.31 124.26
  C 421.73 120.05 419.40 114.98 415.09 113.63
  Q 404.76 110.40 399.53 118.97
  C 398.55 120.58 398.04 122.73 397.58 124.70
  A 1.79 1.75 83.5 0 1 396.67 125.87
  Q 395.16 126.64 393.65 127.41
  Q 387.74 130.40 384.66 135.89
  A 2.41 2.41 0.0 0 1 383.03 137.08
  C 380.82 137.52 378.44 137.35 376.40 138.15
  C 368.81 141.11 368.21 147.99 369.27 155.35
  Q 370.03 160.67 373.50 165.01
  A 0.91 0.91 0.0 0 1 373.42 166.22
  Z
  M 221.76 255.00
  L 209.96 255.00
  A 0.89 0.89 0.0 0 0 209.08 255.75
  Q 208.86 257.09 207.10 263.13
  Q 206.26 265.99 208.49 267.14
  C 214.37 270.18 222.99 270.36 230.19 269.72
  C 240.71 268.78 249.32 264.47 249.85 253.42
  C 250.44 240.85 240.27 240.13 231.23 237.54
  C 224.06 235.49 227.76 225.61 234.01 225.81
  Q 236.25 225.88 236.90 227.78
  Q 237.79 230.35 237.68 231.54
  Q 237.43 234.30 237.43 234.32
  A 0.69 0.68 87.2 0 0 238.11 234.94
  L 249.58 235.01
  A 0.96 0.96 0.0 0 0 250.53 234.24
  L 252.57 224.54
  A 0.58 0.57 23.1 0 0 252.32 223.93
  C 242.60 217.47 220.78 219.26 214.21 230.20
  C 209.97 237.28 212.30 246.38 220.62 248.92
  Q 228.32 251.27 230.62 252.60
  C 235.57 255.44 233.65 261.13 229.73 263.84
  Q 227.55 265.35 224.72 263.89
  A 2.62 2.61 -9.1 0 1 224.04 263.40
  Q 222.19 261.56 222.53 255.82
  A 0.77 0.77 0.0 0 0 221.76 255.00
  Z
  M 513.27 250.98
  L 500.70 250.98
  A 1.09 1.09 0.0 0 0 499.62 251.93
  Q 498.84 258.02 494.87 262.65
  Q 492.80 265.07 489.81 263.90
  A 1.68 1.66 83.6 0 1 489.04 263.28
  Q 487.69 261.29 487.65 260.50
  Q 486.86 245.20 493.12 230.87
  Q 494.51 227.69 497.14 226.18
  C 504.62 221.90 502.45 235.13 502.07 238.50
  A 0.64 0.64 0.0 0 0 502.71 239.22
  L 514.69 239.22
  A 1.17 1.17 0.0 0 0 515.83 238.30
  L 518.41 226.02
  A 1.29 1.29 0.0 0 0 517.77 224.63
  C 503.38 216.73 483.26 218.92 474.55 234.09
  C 470.76 240.70 469.57 249.66 471.28 256.97
  Q 473.68 267.18 484.22 269.27
  C 492.20 270.85 503.89 270.24 510.98 265.05
  A 0.69 0.67 -13.4 0 0 511.25 264.63
  L 513.95 251.81
  A 0.69 0.69 0.0 0 0 513.27 250.98
  Z
  M 259.63 242.69
  Q 259.10 244.87 256.05 259.89
  Q 254.47 267.71 262.20 269.75
  Q 264.60 270.39 274.83 269.64
  A 0.83 0.83 0.0 0 0 275.57 268.99
  L 276.46 264.75
  A 0.67 0.67 0.0 0 0 275.81 263.94
  L 272.54 263.94
  A 0.86 0.86 0.0 0 1 271.70 263.28
  Q 271.15 260.92 271.50 259.48
  Q 273.26 252.33 275.11 242.58
  A 1.06 1.05 -84.3 0 1 276.14 241.73
  L 280.36 241.73
  A 1.30 1.29 6.0 0 0 281.63 240.71
  L 282.20 237.97
  A 1.09 1.09 0.0 0 0 281.14 236.65
  L 277.51 236.65
  A 0.79 0.78 5.7 0 1 276.74 235.71
  L 278.57 227.02
  A 0.63 0.63 0.0 0 0 277.95 226.26
  L 271.75 226.26
  A 1.97 1.94 17.5 0 0 270.16 227.07
  Q 264.77 234.63 256.12 236.29
  A 2.04 2.03 0.4 0 0 254.52 237.86
  L 253.95 240.60
  A 1.00 1.00 0.0 0 0 255.08 241.80
  Q 257.35 241.44 259.06 241.79
  A 0.73 0.73 0.0 0 1 259.63 242.69
  Z
  M 296.37 268.92
  Q 297.94 262.52 300.27 249.74
  C 300.80 246.84 302.04 244.06 305.26 245.06
  A 1.95 1.94 -86.5 0 1 306.59 246.57
  L 307.65 252.73
  A 0.77 0.77 0.0 0 0 308.41 253.37
  L 315.26 253.37
  A 0.86 0.85 5.8 0 0 316.10 252.69
  L 319.08 238.54
  A 1.75 1.75 0.0 0 0 317.78 236.48
  Q 307.48 233.97 302.07 242.04
  A 0.57 0.57 0.0 0 1 301.03 241.82
  L 300.28 237.45
  A 1.06 1.05 85.1 0 0 299.24 236.57
  L 288.01 236.57
  A 0.60 0.60 0.0 0 0 287.42 237.05
  L 280.81 268.49
  A 0.88 0.88 0.0 0 0 281.67 269.56
  L 295.55 269.56
  A 0.85 0.84 7.0 0 0 296.37 268.92
  Z
  M 355.08 258.29
  L 344.11 258.29
  A 1.17 1.17 0.0 0 0 343.00 259.10
  Q 341.51 263.65 336.99 265.12
  A 0.85 0.85 0.0 0 1 336.08 264.87
  C 333.85 262.30 334.20 257.81 334.88 254.76
  A 0.87 0.86 -83.2 0 1 335.72 254.09
  L 356.34 254.09
  A 0.79 0.77 -76.1 0 0 357.03 253.66
  Q 359.82 248.24 358.38 242.62
  C 357.09 237.64 351.70 236.45 346.99 236.06
  C 337.34 235.24 326.24 236.93 321.54 246.00
  Q 317.60 253.58 320.17 261.26
  C 324.09 273.00 343.26 270.77 352.37 267.52
  A 3.02 3.00 86.4 0 0 354.31 265.30
  L 355.64 258.98
  A 0.57 0.57 0.0 0 0 355.08 258.29
  Z
  M 364.36 244.96
  A 0.90 0.90 0.0 0 0 365.24 246.04
  L 374.53 246.06
  A 1.31 1.30 6.5 0 0 375.81 245.05
  Q 376.79 240.77 381.95 241.05
  A 2.82 2.81 1.7 0 1 384.60 243.86
  L 384.60 246.90
  A 2.58 2.57 -88.7 0 1 381.91 249.48
  C 374.77 249.17 360.79 249.87 359.21 259.10
  C 358.27 264.61 361.67 269.44 367.36 269.92
  Q 375.22 270.59 380.84 264.91
  A 0.71 0.71 0.0 0 1 382.04 265.28
  L 382.62 268.66
  A 1.03 1.03 0.0 0 0 383.63 269.52
  L 394.94 269.54
  A 0.51 0.51 0.0 0 0 395.44 269.14
  C 397.39 260.20 399.48 253.65 399.48 246.01
  C 399.48 240.14 395.77 237.27 390.25 236.39
  C 382.49 235.15 372.63 235.30 365.98 239.33
  A 1.28 1.28 0.0 0 0 365.38 240.17
  L 364.36 244.96
  Z
  M 422.72 241.26
  Q 422.33 239.99 422.12 238.86
  C 421.66 236.36 420.33 236.65 418.40 236.61
  Q 409.20 236.44 409.08 236.42
  A 0.46 0.45 -79.9 0 0 408.57 236.78
  L 401.96 268.55
  A 0.83 0.83 0.0 0 0 402.77 269.55
  L 416.81 269.55
  A 0.66 0.65 -84.0 0 0 417.45 269.03
  L 422.01 247.35
  A 5.19 5.18 -0.2 0 1 425.99 243.35
  L 426.64 243.21
  A 2.29 2.29 0.0 0 1 429.37 245.92
  L 424.58 268.69
  A 0.68 0.68 0.0 0 0 425.24 269.52
  L 438.14 269.52
  A 0.77 0.77 0.0 0 0 438.89 268.91
  L 443.48 247.10
  A 4.82 4.80 2.7 0 1 447.67 243.30
  L 448.29 243.23
  A 2.38 2.38 0.0 0 1 450.88 246.09
  L 446.21 268.31
  A 1.02 1.02 0.0 0 0 447.21 269.54
  L 460.56 269.54
  A 0.70 0.70 0.0 0 0 461.24 268.99
  Q 463.69 257.38 466.07 246.28
  C 466.90 242.46 465.82 238.43 461.76 236.84
  C 455.69 234.47 449.45 237.11 444.61 241.16
  A 0.69 0.69 0.0 0 1 443.48 240.70
  C 443.20 237.81 440.56 236.04 437.70 235.88
  Q 429.31 235.40 423.25 241.40
  A 0.32 0.32 0.0 0 1 422.72 241.26
  Z
  M 521.06 245.03
  A 0.90 0.90 0.0 0 0 521.94 246.11
  L 531.20 246.11
  A 1.30 1.30 0.0 0 0 532.47 245.10
  Q 533.44 240.83 538.58 241.10
  A 2.81 2.80 1.6 0 1 541.23 243.90
  L 541.23 246.93
  A 2.57 2.56 -88.8 0 1 538.56 249.50
  C 531.44 249.21 517.51 249.93 515.95 259.13
  C 515.03 264.63 518.43 269.43 524.10 269.90
  Q 531.93 270.55 537.52 264.88
  A 0.71 0.71 0.0 0 1 538.72 265.25
  L 539.30 268.62
  A 1.03 1.03 0.0 0 0 540.31 269.47
  L 551.58 269.47
  A 0.51 0.51 0.0 0 0 552.08 269.07
  C 554.01 260.16 556.08 253.62 556.06 246.01
  C 556.05 240.16 552.35 237.31 546.84 236.44
  C 539.11 235.22 529.28 235.39 522.66 239.42
  A 1.27 1.27 0.0 0 0 522.07 240.26
  L 521.06 245.03
  Z
  M 575.48 264.66
  C 581.31 272.30 593.19 271.97 597.79 263.19
  C 601.17 256.73 606.72 236.40 592.94 236.24
  Q 585.08 236.15 579.66 241.35
  A 0.52 0.51 68.5 0 1 578.79 240.97
  Q 578.80 238.92 577.83 237.13
  A 1.10 1.08 75.8 0 0 576.87 236.55
  L 565.72 236.55
  A 0.66 0.65 -84.0 0 0 565.08 237.07
  L 555.69 281.74
  A 0.47 0.47 0.0 0 0 556.15 282.31
  L 570.54 282.31
  A 0.88 0.87 -83.8 0 0 571.39 281.62
  L 574.93 264.78
  A 0.31 0.31 0.0 0 1 575.48 264.66
  Z"/>
  <path fill="#030303" d="
  M 373.42 166.22
  A 0.91 0.91 0.0 0 0 373.50 165.01
  Q 370.03 160.67 369.27 155.35
  C 368.21 147.99 368.81 141.11 376.40 138.15
  C 378.44 137.35 380.82 137.52 383.03 137.08
  A 2.41 2.41 0.0 0 0 384.66 135.89
  Q 387.74 130.40 393.65 127.41
  Q 395.16 126.64 396.67 125.87
  A 1.79 1.75 83.5 0 0 397.58 124.70
  C 398.04 122.73 398.55 120.58 399.53 118.97
  Q 404.76 110.40 415.09 113.63
  C 419.40 114.98 421.73 120.05 421.31 124.26
  C 421.08 126.62 422.14 127.69 423.97 128.06
  A 1.21 1.20 28.2 0 0 425.04 127.74
  Q 431.08 121.86 438.89 125.24
  Q 443.36 127.19 445.35 132.72
  Q 448.97 142.80 441.50 149.95
  A 1.20 1.18 -32.6 0 0 441.21 151.23
  C 448.14 168.86 444.41 187.23 434.02 202.50
  C 432.76 204.35 431.92 204.65 429.64 204.68
  Q 403.48 204.93 362.93 204.59
  A 0.72 0.72 0.0 0 1 362.22 203.91
  C 361.48 189.92 363.10 176.44 373.42 166.22
  Z
  M 371.58 155.77
  L 372.62 147.80
  A 2.53 2.52 -57.2 0 0 372.26 146.13
  L 371.95 145.62
  A 0.54 0.53 32.9 0 0 370.96 145.83
  C 370.12 153.17 370.43 158.75 375.38 164.61
  A 0.95 0.95 0.0 0 0 376.36 164.92
  C 389.48 161.49 399.28 166.74 409.68 174.40
  C 415.52 178.70 423.04 178.73 429.59 176.36
  C 434.70 174.50 443.31 169.04 442.66 162.64
  Q 442.16 157.73 439.84 152.51
  A 1.31 1.30 67.8 0 0 438.20 151.82
  Q 434.93 153.03 431.25 152.47
  A 0.66 0.65 -86.4 0 1 430.69 151.83
  Q 430.63 144.31 423.81 142.01
  A 2.52 2.50 3.9 0 1 422.15 140.12
  Q 421.04 134.60 423.37 130.53
  A 0.60 0.59 30.2 0 0 423.15 129.72
  Q 417.97 126.79 415.74 126.27
  Q 401.91 123.10 390.66 131.42
  Q 387.72 133.60 386.00 137.16
  A 2.53 2.50 7.8 0 1 384.16 138.54
  L 376.91 139.80
  A 0.91 0.91 0.0 0 0 376.40 140.07
  L 375.71 140.76
  A 0.34 0.33 20.7 0 0 375.97 141.33
  C 383.49 140.92 382.01 149.42 375.59 147.46
  A 0.87 0.87 0.0 0 0 374.52 147.98
  Q 373.10 151.75 373.08 155.30
  A 0.17 0.16 -16.8 0 1 373.00 155.44
  L 372.07 156.07
  A 0.32 0.31 -13.4 0 1 371.58 155.77
  Z"/>
  <path fill="#fdfdfd" d="
  M 371.58 155.77
  A 0.32 0.31 -13.4 0 0 372.07 156.07
  L 373.00 155.44
  A 0.17 0.16 -16.8 0 0 373.08 155.30
  Q 373.10 151.75 374.52 147.98
  A 0.87 0.87 0.0 0 1 375.59 147.46
  C 382.01 149.42 383.49 140.92 375.97 141.33
  A 0.34 0.33 20.7 0 1 375.71 140.76
  L 376.40 140.07
  A 0.91 0.91 0.0 0 1 376.91 139.80
  L 384.16 138.54
  A 2.53 2.50 7.8 0 0 386.00 137.16
  Q 387.72 133.60 390.66 131.42
  Q 401.91 123.10 415.74 126.27
  Q 417.97 126.79 423.15 129.72
  A 0.60 0.59 30.2 0 1 423.37 130.53
  Q 421.04 134.60 422.15 140.12
  A 2.52 2.50 3.9 0 0 423.81 142.01
  Q 430.63 144.31 430.69 151.83
  A 0.66 0.65 -86.4 0 0 431.25 152.47
  Q 434.93 153.03 438.20 151.82
  A 1.31 1.30 67.8 0 1 439.84 152.51
  Q 442.16 157.73 442.66 162.64
  C 443.31 169.04 434.70 174.50 429.59 176.36
  C 423.04 178.73 415.52 178.70 409.68 174.40
  C 399.28 166.74 389.48 161.49 376.36 164.92
  A 0.95 0.95 0.0 0 1 375.38 164.61
  C 370.43 158.75 370.12 153.17 370.96 145.83
  A 0.54 0.53 32.9 0 1 371.95 145.62
  L 372.26 146.13
  A 2.53 2.52 -57.2 0 1 372.62 147.80
  L 371.58 155.77
  Z
  M 397.57 143.76
  L 399.65 158.35
  A 3.24 3.24 0.0 0 0 403.31 161.10
  L 404.91 160.88
  A 9.22 8.58 81.9 0 0 412.11 150.54
  L 411.72 147.79
  A 9.22 8.58 81.9 0 0 401.92 139.87
  L 400.32 140.10
  A 3.24 3.24 0.0 0 0 397.57 143.76
  Z"/>
  <path fill="#030303" d="
  M 397.57 143.76
  A 3.24 3.24 0.0 0 1 400.32 140.10
  L 401.92 139.87
  A 9.22 8.58 81.9 0 1 411.72 147.79
  L 412.11 150.54
  A 9.22 8.58 81.9 0 1 404.91 160.88
  L 403.31 161.10
  A 3.24 3.24 0.0 0 1 399.65 158.35
  L 397.57 143.76
  Z"/>
  <path fill="#343434" d="
  M 221.76 255.00
  A 0.77 0.77 0.0 0 1 222.53 255.82
  Q 222.19 261.56 224.04 263.40
  A 2.62 2.61 -9.1 0 0 224.72 263.89
  Q 227.55 265.35 229.73 263.84
  C 233.65 261.13 235.57 255.44 230.62 252.60
  Q 228.32 251.27 220.62 248.92
  C 212.30 246.38 209.97 237.28 214.21 230.20
  C 220.78 219.26 242.60 217.47 252.32 223.93
  A 0.58 0.57 23.1 0 1 252.57 224.54
  L 250.53 234.24
  A 0.96 0.96 0.0 0 1 249.58 235.01
  L 238.11 234.94
  A 0.69 0.68 87.2 0 1 237.43 234.32
  Q 237.43 234.30 237.68 231.54
  Q 237.79 230.35 236.90 227.78
  Q 236.25 225.88 234.01 225.81
  C 227.76 225.61 224.06 235.49 231.23 237.54
  C 240.27 240.13 250.44 240.85 249.85 253.42
  C 249.32 264.47 240.71 268.78 230.19 269.72
  C 222.99 270.36 214.37 270.18 208.49 267.14
  Q 206.26 265.99 207.10 263.13
  Q 208.86 257.09 209.08 255.75
  A 0.89 0.89 0.0 0 1 209.96 255.00
  L 221.76 255.00
  Z"/>
  <path fill="#343434" d="
  M 513.27 250.98
  A 0.69 0.69 0.0 0 1 513.95 251.81
  L 511.25 264.63
  A 0.69 0.67 -13.4 0 1 510.98 265.05
  C 503.89 270.24 492.20 270.85 484.22 269.27
  Q 473.68 267.18 471.28 256.97
  C 469.57 249.66 470.76 240.70 474.55 234.09
  C 483.26 218.92 503.38 216.73 517.77 224.63
  A 1.29 1.29 0.0 0 1 518.41 226.02
  L 515.83 238.30
  A 1.17 1.17 0.0 0 1 514.69 239.22
  L 502.71 239.22
  A 0.64 0.64 0.0 0 1 502.07 238.50
  C 502.45 235.13 504.62 221.90 497.14 226.18
  Q 494.51 227.69 493.12 230.87
  Q 486.86 245.20 487.65 260.50
  Q 487.69 261.29 489.04 263.28
  A 1.68 1.66 83.6 0 0 489.81 263.90
  Q 492.80 265.07 494.87 262.65
  Q 498.84 258.02 499.62 251.93
  A 1.09 1.09 0.0 0 1 500.70 250.98
  L 513.27 250.98
  Z"/>
  <path fill="#343434" d="
  M 259.06 241.79
  Q 257.35 241.44 255.08 241.80
  A 1.00 1.00 0.0 0 1 253.95 240.60
  L 254.52 237.86
  A 2.04 2.03 0.4 0 1 256.12 236.29
  Q 264.77 234.63 270.16 227.07
  A 1.97 1.94 17.5 0 1 271.75 226.26
  L 277.95 226.26
  A 0.63 0.63 0.0 0 1 278.57 227.02
  L 276.74 235.71
  A 0.79 0.78 5.7 0 0 277.51 236.65
  L 281.14 236.65
  A 1.09 1.09 0.0 0 1 282.20 237.97
  L 281.63 240.71
  A 1.30 1.29 6.0 0 1 280.36 241.73
  L 276.14 241.73
  A 1.06 1.05 -84.3 0 0 275.11 242.58
  Q 273.26 252.33 271.50 259.48
  Q 271.15 260.92 271.70 263.28
  A 0.86 0.86 0.0 0 0 272.54 263.94
  L 275.81 263.94
  A 0.67 0.67 0.0 0 1 276.46 264.75
  L 275.57 268.99
  A 0.83 0.83 0.0 0 1 274.83 269.64
  Q 264.60 270.39 262.20 269.75
  Q 254.47 267.71 256.05 259.89
  Q 259.10 244.87 259.63 242.69
  A 0.73 0.73 0.0 0 0 259.06 241.79
  Z"/>
  <path fill="#343434" d="
  M 295.55 269.56
  L 281.67 269.56
  A 0.88 0.88 0.0 0 1 280.81 268.49
  L 287.42 237.05
  A 0.60 0.60 0.0 0 1 288.01 236.57
  L 299.24 236.57
  A 1.06 1.05 85.1 0 1 300.28 237.45
  L 301.03 241.82
  A 0.57 0.57 0.0 0 0 302.07 242.04
  Q 307.48 233.97 317.78 236.48
  A 1.75 1.75 0.0 0 1 319.08 238.54
  L 316.10 252.69
  A 0.86 0.85 5.8 0 1 315.26 253.37
  L 308.41 253.37
  A 0.77 0.77 0.0 0 1 307.65 252.73
  L 306.59 246.57
  A 1.95 1.94 -86.5 0 0 305.26 245.06
  C 302.04 244.06 300.80 246.84 300.27 249.74
  Q 297.94 262.52 296.37 268.92
  A 0.85 0.84 7.0 0 1 295.55 269.56
  Z"/>
  <path fill="#343434" d="
  M 355.08 258.29
  A 0.57 0.57 0.0 0 1 355.64 258.98
  L 354.31 265.30
  A 3.02 3.00 86.4 0 1 352.37 267.52
  C 343.26 270.77 324.09 273.00 320.17 261.26
  Q 317.60 253.58 321.54 246.00
  C 326.24 236.93 337.34 235.24 346.99 236.06
  C 351.70 236.45 357.09 237.64 358.38 242.62
  Q 359.82 248.24 357.03 253.66
  A 0.79 0.77 -76.1 0 1 356.34 254.09
  L 335.72 254.09
  A 0.87 0.86 -83.2 0 0 334.88 254.76
  C 334.20 257.81 333.85 262.30 336.08 264.87
  A 0.85 0.85 0.0 0 0 336.99 265.12
  Q 341.51 263.65 343.00 259.10
  A 1.17 1.17 0.0 0 1 344.11 258.29
  L 355.08 258.29
  Z
  M 343.11 250.61
  A 1.86 1.86 0.0 0 0 344.93 249.15
  C 345.47 246.67 346.20 240.73 341.69 241.03
  A 1.71 1.70 -67.9 0 0 340.66 241.47
  Q 337.66 244.15 336.04 249.28
  A 1.02 1.02 0.0 0 0 337.01 250.61
  L 343.11 250.61
  Z"/>
  <path fill="#343434" d="
  M 364.36 244.96
  L 365.38 240.17
  A 1.28 1.28 0.0 0 1 365.98 239.33
  C 372.63 235.30 382.49 235.15 390.25 236.39
  C 395.77 237.27 399.48 240.14 399.48 246.01
  C 399.48 253.65 397.39 260.20 395.44 269.14
  A 0.51 0.51 0.0 0 1 394.94 269.54
  L 383.63 269.52
  A 1.03 1.03 0.0 0 1 382.62 268.66
  L 382.04 265.28
  A 0.71 0.71 0.0 0 0 380.84 264.91
  Q 375.22 270.59 367.36 269.92
  C 361.67 269.44 358.27 264.61 359.21 259.10
  C 360.79 249.87 374.77 249.17 381.91 249.48
  A 2.58 2.57 -88.7 0 0 384.60 246.90
  L 384.60 243.86
  A 2.82 2.81 1.7 0 0 381.95 241.05
  Q 376.79 240.77 375.81 245.05
  A 1.31 1.30 6.5 0 1 374.53 246.06
  L 365.24 246.04
  A 0.90 0.90 0.0 0 1 364.36 244.96
  Z
  M 374.89 262.13
  Q 375.23 262.42 375.58 262.61
  A 1.61 1.60 58.4 0 0 376.44 262.82
  C 382.22 262.51 383.12 257.56 382.79 252.94
  Q 382.78 252.83 382.65 252.72
  Q 382.52 252.62 382.41 252.63
  C 377.81 253.18 373.12 255.00 373.91 260.73
  A 1.61 1.60 20.7 0 0 374.28 261.54
  Q 374.54 261.84 374.89 262.13
  Z"/>
  <path fill="#343434" d="
  M 422.72 241.26
  A 0.32 0.32 0.0 0 0 423.25 241.40
  Q 429.31 235.40 437.70 235.88
  C 440.56 236.04 443.20 237.81 443.48 240.70
  A 0.69 0.69 0.0 0 0 444.61 241.16
  C 449.45 237.11 455.69 234.47 461.76 236.84
  C 465.82 238.43 466.90 242.46 466.07 246.28
  Q 463.69 257.38 461.24 268.99
  A 0.70 0.70 0.0 0 1 460.56 269.54
  L 447.21 269.54
  A 1.02 1.02 0.0 0 1 446.21 268.31
  L 450.88 246.09
  A 2.38 2.38 0.0 0 0 448.29 243.23
  L 447.67 243.30
  A 4.82 4.80 2.7 0 0 443.48 247.10
  L 438.89 268.91
  A 0.77 0.77 0.0 0 1 438.14 269.52
  L 425.24 269.52
  A 0.68 0.68 0.0 0 1 424.58 268.69
  L 429.37 245.92
  A 2.29 2.29 0.0 0 0 426.64 243.21
  L 425.99 243.35
  A 5.19 5.18 -0.2 0 0 422.01 247.35
  L 417.45 269.03
  A 0.66 0.65 -84.0 0 1 416.81 269.55
  L 402.77 269.55
  A 0.83 0.83 0.0 0 1 401.96 268.55
  L 408.57 236.78
  A 0.46 0.45 -79.9 0 1 409.08 236.42
  Q 409.20 236.44 418.40 236.61
  C 420.33 236.65 421.66 236.36 422.12 238.86
  Q 422.33 239.99 422.72 241.26
  Z"/>
  <path fill="#343434" d="
  M 521.06 245.03
  L 522.07 240.26
  A 1.27 1.27 0.0 0 1 522.66 239.42
  C 529.28 235.39 539.11 235.22 546.84 236.44
  C 552.35 237.31 556.05 240.16 556.06 246.01
  C 556.08 253.62 554.01 260.16 552.08 269.07
  A 0.51 0.51 0.0 0 1 551.58 269.47
  L 540.31 269.47
  A 1.03 1.03 0.0 0 1 539.30 268.62
  L 538.72 265.25
  A 0.71 0.71 0.0 0 0 537.52 264.88
  Q 531.93 270.55 524.10 269.90
  C 518.43 269.43 515.03 264.63 515.95 259.13
  C 517.51 249.93 531.44 249.21 538.56 249.50
  A 2.57 2.56 -88.8 0 0 541.23 246.93
  L 541.23 243.90
  A 2.81 2.80 1.6 0 0 538.58 241.10
  Q 533.44 240.83 532.47 245.10
  A 1.30 1.30 0.0 0 1 531.20 246.11
  L 521.94 246.11
  A 0.90 0.90 0.0 0 1 521.06 245.03
  Z
  M 539.66 253.58
  A 0.55 0.54 4.1 0 0 539.12 252.96
  C 535.20 253.01 531.36 253.93 530.41 258.34
  C 529.84 260.99 531.57 263.48 534.39 262.74
  C 539.20 261.50 539.06 257.53 539.66 253.58
  Z"/>
  <path fill="#343434" d="
  M 575.48 264.66
  A 0.31 0.31 0.0 0 0 574.93 264.78
  L 571.39 281.62
  A 0.88 0.87 -83.8 0 1 570.54 282.31
  L 556.15 282.31
  A 0.47 0.47 0.0 0 1 555.69 281.74
  L 565.08 237.07
  A 0.66 0.65 -84.0 0 1 565.72 236.55
  L 576.87 236.55
  A 1.10 1.08 75.8 0 1 577.83 237.13
  Q 578.80 238.92 578.79 240.97
  A 0.52 0.51 68.5 0 0 579.66 241.35
  Q 585.08 236.15 592.94 236.24
  C 606.72 236.40 601.17 256.73 597.79 263.19
  C 593.19 271.97 581.31 272.30 575.48 264.66
  Z
  M 586.1047 247.8804
  A 3.46 3.46 0.0 0 0 583.5919 243.6818
  L 583.3591 243.6233
  A 3.46 3.46 0.0 0 0 579.1605 246.1362
  L 576.1153 258.2596
  A 3.46 3.46 0.0 0 0 578.6281 262.4582
  L 578.8609 262.5167
  A 3.46 3.46 0.0 0 0 583.0595 260.0038
  L 586.1047 247.8804
  Z"/>
  <path fill="#fdfdfd" d="
  M 336.04 249.28
  Q 337.66 244.15 340.66 241.47
  A 1.71 1.70 -67.9 0 1 341.69 241.03
  C 346.20 240.73 345.47 246.67 344.93 249.15
  A 1.86 1.86 0.0 0 1 343.11 250.61
  L 337.01 250.61
  A 1.02 1.02 0.0 0 1 336.04 249.28
  Z"/>
  <rect fill="#fdfdfd" x="-3.58" y="-9.71" transform="translate(581.11,253.07) rotate(14.1)" width="7.16" height="19.42" rx="3.46"/>
  <path fill="#fdfdfd" d="
  M 382.65 252.72
  Q 382.78 252.83 382.79 252.94
  C 383.12 257.56 382.22 262.51 376.44 262.82
  A 1.61 1.60 58.4 0 1 375.58 262.61
  Q 375.23 262.42 374.89 262.13
  Q 374.54 261.84 374.28 261.54
  A 1.61 1.60 20.7 0 1 373.91 260.73
  C 373.12 255.00 377.81 253.18 382.41 252.63
  Q 382.52 252.62 382.65 252.72
  Z"/>
  <path fill="#fdfdfd" d="
  M 539.66 253.58
  C 539.06 257.53 539.20 261.50 534.39 262.74
  C 531.57 263.48 529.84 260.99 530.41 258.34
  C 531.36 253.93 535.20 253.01 539.12 252.96
  A 0.55 0.54 4.1 0 1 539.66 253.58
  Z"/>
</svg>
